<svg version="1.1" xmlns="http://www.w3.org/2000/svg" xmlns:xlink="http://www.w3.org/1999/xlink" x="0px" y="0px" viewBox="0 0 105.2 100" fill="white">
	<path class="st0" d="M7.3,47.2v-0.8v-1.7v-1v-1.5v-1v-1.2v-1c0-0.4,0-0.8,0.2-1.2c0-0.4,0-0.6,0.2-0.8c0-0.4,0-0.6,0.2-1
		c0-0.2,0-0.6,0.2-0.8c0-0.4,0-0.6,0.2-1c0-0.2,0-0.6,0.2-0.8c0-0.2,0.2-0.6,0.2-0.8c0-0.2,0.2-0.4,0.2-0.8c0-0.2,0.2-0.6,0.2-0.8
		s0.2-0.4,0.2-0.6s0.2-0.4,0.2-0.6s0.2-0.4,0.2-0.6S10,28.2,10,28s0.2-0.4,0.2-0.4c0-0.2,0.2-0.4,0.2-0.4c0-0.2,0.2-0.2,0.2-0.4
		c0-0.2,0.2-0.2,0.2-0.4c0-0.2,0.2-0.2,0.2-0.4c0-0.2,0.2-0.2,0.2-0.4l0.2-0.2l0.2-0.2l0.2-0.2c1.7,1.5,4.2,10.4,4.2,24.8
		S13.5,73,11.8,74.5c0,0,0-0.2-0.2-0.2l-0.2-0.2c0,0,0-0.2-0.2-0.2c0,0-0.2-0.2-0.2-0.4c0-0.2-0.2-0.2-0.2-0.4c0-0.2-0.2-0.2-0.2-0.4
		c0-0.2-0.2-0.2-0.2-0.4c0-0.2-0.2-0.4-0.2-0.6S10,71.1,10,71.1c0-0.2-0.2-0.4-0.2-0.6c0-0.2-0.2-0.4-0.2-0.6
		c-0.2,0.2-0.2-0.2-0.2-0.4c0-0.2-0.2-0.4-0.2-0.6c0-0.2-0.2-0.4-0.2-0.8c0-0.2-0.2-0.4-0.2-0.8c0-0.2-0.2-0.6-0.2-0.8s0-0.6-0.2-0.8
		c0-0.2,0-0.6-0.2-1c0-0.2,0-0.6-0.2-0.8c0-0.4,0-0.6-0.2-1c0-0.2,0-0.6-0.2-0.8c0-0.4,0-0.8-0.2-1.2v-1v-1.2v-1v-1.5v-1V53v-0.8
		v-2.7C7.3,48.4,7.3,48,7.3,47.2L7.3,47.2z M23.9,49.9h-4.2c0-2.3-0.2-17.5-3.5-25h3.5C21.2,25.9,23.9,35.1,23.9,49.9z M22.9,64.5
		c-0.2,1.5-0.4,2.9-0.8,4.2h-4c0.2-1.2,0.4-2.7,0.6-4.2H22.9z M19.8,54h4.2c0,2.3-0.2,4.4-0.4,6.2h-4.2C19.6,58,19.6,55.9,19.8,54z
		M19.6,74.9h-3.3c0.2-0.6,0.6-1.2,0.8-2.1h4C20.4,73.8,20,74.7,19.6,74.9L19.6,74.9z M28.1,49.9c0-2.9-0.2-29.2-8.3-29.2h-8.3
		c-8.1,0-8.3,26.3-8.3,29.2S3.3,79,11.4,79h8.3C27.9,79,28.1,52.8,28.1,49.9z"/>
	<path class="st0" d="M50.8,48.2L46.6,49c-0.4-2.3-3.5-17.1-8.3-23.7l3.3-0.6C43.5,25.3,47.9,33.6,50.8,48.2L50.8,48.2z M52.7,67
		l-4,0.8v-0.6c0-1.2,0-2.5-0.2-3.5l4-0.8C52.7,64.3,52.7,65.7,52.7,67z M47.5,53.2l4.2-0.8c0.4,2.3,0.6,4.4,0.8,6.2l-4.2,0.8
		C48.1,57.2,47.7,54.9,47.5,53.2z M43.1,74.9l-0.2-0.2l-0.2-0.2l-0.2-0.2l-0.2-0.2c0-0.2-0.2-0.2-0.2-0.4c0-0.2-0.2-0.2-0.2-0.4
		c0-0.2-0.2-0.2-0.2-0.4c0-0.2-0.2-0.2-0.2-0.4c0-0.2-0.2-0.4-0.2-0.6c0-0.2-0.2-0.4-0.2-0.6c0-0.2-0.2-0.4-0.2-0.6
		c0-0.2-0.2-0.4-0.2-0.6c0-0.2-0.2-0.4-0.2-0.6c0-0.2-0.2-0.4-0.2-0.6C40,68.4,40,68,39.8,67.8c-0.2-0.2-0.2-0.4-0.4-0.8
		c-0.2-0.2-0.2-0.6-0.4-0.8c-0.2-0.2-0.2-0.6-0.4-0.8c-0.2-0.2-0.2-0.6-0.4-0.8c-0.2-0.4-0.2-0.6-0.4-1c0-0.4-0.2-0.6-0.2-1
		c-0.2-0.4-0.2-0.6-0.4-1c0-0.4-0.2-0.6-0.2-1c-0.2-0.4-0.2-0.8-0.4-1.2c0-0.4-0.2-0.6-0.2-1c-0.2-0.4-0.2-0.8-0.4-1.2
		c0-0.2-0.2-0.6-0.2-0.8c-0.2-0.4-0.2-1-0.4-1.5v-0.2c-0.2-0.8-0.4-1.5-0.4-2.3c-0.2-0.8-0.4-1.9-0.4-2.7v-0.6
		c-0.2-0.6-0.2-1.2-0.2-1.9c0-0.2,0-0.4-0.2-0.8c0-0.6-0.2-1-0.2-1.7v-0.8c0-0.4-0.2-1-0.2-1.5v-0.8c0-0.4,0-0.8-0.2-1.5v-0.8v-1.2
		V37v-1v-0.6v-1v-0.6v-0.8v-0.6v-0.8v-0.6v-0.6v-0.4v-0.6v-0.4v-0.4v-0.4c0-0.2,0-0.2,0.2-0.4v-0.2c0,0,0-0.2,0.2-0.2
		c0,0,0-0.2,0.2-0.2v-0.2c1.9,1.2,6,9.4,9,23.5c2.7,14.2,2.1,23.3,0.6,25.2L43.1,74.9L43.1,74.9z M48.1,74.3c0.2-0.6,0.2-1.5,0.4-2.3
		l3.8-0.8c-0.2,1.2-0.4,1.9-0.8,2.3L48.1,74.3z M56.8,65.5c0-7.7-1.7-16.5-1.9-18.1c-0.6-2.9-5.8-28.5-13.8-27.1L33.1,22
		c-7.9,1.7-3.1,27.3-2.5,30.2c0.8,4.6,2.1,8.8,3.3,12.7c0.8,2.3,1.5,4.4,2.3,6.2c2.7,6,5.4,8.8,8.1,8.1l8.1-1.7
		C55.8,77,56.8,71.5,56.8,65.5z"/>
	<path class="st0" d="M89.6,54C89.3,54,89.3,54.3,89.6,54L86,52c3.8-6.5,6.7-12.7,8.1-17.9c0.6-2.1,1-4,1.2-5.4l2.9,1.7
		C99.1,32,96.8,41.1,89.6,54z M70.2,71.8c0.6-0.4,1-0.8,1.7-1.5l3.3,1.9c-1,0.8-1.7,1-2.1,1.2L70.2,71.8z M80.2,60.7
		c1.2-1.7,2.3-3.3,3.5-5.2l3.5,2.1c-1.2,1.9-2.3,3.5-3.5,5.2L80.2,60.7z M75,67.4c0.8-1,1.9-2.1,2.7-3.3l3.5,2.1
		c-1,1.2-1.9,2.3-2.7,3.1L75,67.4z M76.4,43.4c0.2-0.2,0.4-0.4,0.4-0.8c0.2-0.4,0.6-1,0.8-1.5c0.2-0.2,0.4-0.6,0.6-0.8
		c0.2-0.4,0.4-0.8,0.8-1.2c0.2-0.2,0.4-0.6,0.6-0.8c0.2-0.4,0.4-0.6,0.6-1c0.2-0.2,0.4-0.4,0.6-0.8c0.2-0.4,0.4-0.6,0.6-1
		c0.2-0.2,0.4-0.4,0.6-0.6c0.2-0.2,0.4-0.6,0.6-0.8c0.2-0.2,0.4-0.4,0.4-0.6c0.2-0.2,0.4-0.6,0.6-0.8s0.4-0.4,0.4-0.6
		c0.2-0.2,0.4-0.4,0.6-0.6s0.2-0.4,0.4-0.4c0.2-0.2,0.4-0.4,0.6-0.6s0.2-0.2,0.4-0.4c0.2-0.2,0.4-0.4,0.6-0.6s0.2-0.2,0.4-0.4
		c0.2-0.2,0.4-0.4,0.6-0.4c0.2-0.2,0.2-0.2,0.4-0.2c0.2-0.2,0.4-0.2,0.4-0.4c0.2,0,0.2-0.2,0.2-0.2c0.2-0.2,0.2-0.2,0.4-0.4l0.2-0.2
		c0.2,0,0.2-0.2,0.4-0.2c0,0,0.2,0,0.2-0.2c0.2,0,0.2-0.2,0.2-0.2h0.2H91c0.6,2.1-1.7,11-9,23.5c-7.3,12.5-14,19-16,19.4v-0.2v-0.2
		v-0.4V68v-0.6c0.4-3.5,2.9-11.7,9-22.1C75.6,44.9,76,44,76.4,43.4L76.4,43.4z M71.4,43.6c-3.8,6.5-6.7,12.7-8.3,17.9
		c-1.9,6.2-1.7,10,0.8,11.5l7.3,4.2c7.1,4.2,20.4-18.5,21.9-21c3.8-6.5,6.7-12.7,8.3-17.9c0.8-2.7,1.2-5,1.2-6.9
		c0-2.3-0.6-3.8-2.1-4.6l-7.3-4.2C86.2,18.4,72.9,40.9,71.4,43.6L71.4,43.6z"/>
</svg>
