<svg xmlns="http://www.w3.org/2000/svg" viewBox="0 0 20 20" fill="#fff">
	<path d="M19.5,16.2l-9.1,3.8C10.3,20,10.2,20,10,20c-0.1,0-0.3,0-0.4-0.1l-9.1-3.8C0.2,16,0,15.7,0,15.3V0.9
		C0,0.4,0.4,0,0.9,0c0,0,0,0,0,0c0.1,0,0.2,0,0.3,0.1l0,0L10,3.7l8.7-3.6l0,0C18.8,0,18.9,0,19.1,0C19.6,0,20,0.4,20,0.9c0,0,0,0,0,0
		v14.4C20,15.7,19.8,16,19.5,16.2z M9.1,5.3l-7.2-3v12.3l7.2,3V5.3z M18.2,2.3l-7.2,3v12.3l7.2-3V2.3z M12.4,6.7l3.4-1.6l0,0
		C16,5,16.1,5,16.2,5c0.5,0,0.9,0.4,0.9,0.9c0,0,0,0,0,0c0,0.4-0.2,0.7-0.6,0.8l0,0l-3.4,1.6l0,0c-0.1,0.1-0.2,0.1-0.4,0.1
		c-0.5,0-0.9-0.4-0.9-0.9c0,0,0,0,0,0C11.9,7.1,12.1,6.8,12.4,6.7L12.4,6.7z M12.4,10.1L12.4,10.1l3.4-1.6l0,0
		c0.1-0.1,0.2-0.1,0.4-0.1c0.5,0,0.9,0.4,0.9,0.9c0,0,0,0,0,0c0,0.4-0.2,0.7-0.6,0.8l-3.4,1.6l0,0c-0.1,0.1-0.2,0.1-0.4,0.1
		c-0.5,0-0.9-0.4-0.9-0.9c0,0,0,0,0,0C11.9,10.6,12.1,10.2,12.4,10.1L12.4,10.1z M12.4,13.5L12.4,13.5l3.4-1.6l0,0
		c0.1-0.1,0.2-0.1,0.4-0.1c0.5,0,0.9,0.4,0.9,0.9c0,0,0,0,0,0c0,0.4-0.2,0.7-0.6,0.8l0,0l-3.4,1.6l0,0c-0.1,0.1-0.2,0.1-0.4,0.1
		c-0.5,0-0.9-0.4-0.9-0.9c0,0,0,0,0,0C11.9,14,12.1,13.7,12.4,13.5L12.4,13.5z M3.7,5C3.9,5,4,5,4.1,5.1l0,0l3.4,1.6l0,0
		c0.3,0.2,0.5,0.5,0.6,0.8c0,0.5-0.4,0.9-0.9,0.9c0,0,0,0,0,0c-0.1,0-0.3,0-0.4-0.1l0,0L3.4,6.8l0,0C3,6.6,2.8,6.3,2.8,5.9
		C2.8,5.4,3.2,5,3.7,5L3.7,5z M3.7,8.4c0.1,0,0.3,0,0.4,0.1l0,0l3.4,1.6l0,0c0.3,0.2,0.5,0.5,0.6,0.8c0,0.5-0.4,0.9-0.9,0.9
		c0,0,0,0,0,0c-0.1,0-0.3,0-0.4-0.1l0,0l-3.4-1.6l0,0C3,10.1,2.8,9.7,2.8,9.4C2.8,8.9,3.2,8.4,3.7,8.4L3.7,8.4z M3.7,11.9
		c0.1,0,0.3,0,0.4,0.1l0,0l3.4,1.6l0,0c0.3,0.2,0.5,0.5,0.6,0.8c0,0.5-0.4,0.9-0.9,0.9c0,0,0,0,0,0c-0.1,0-0.3,0-0.4-0.1l0,0
		l-3.4-1.6l0,0c-0.3-0.2-0.5-0.5-0.6-0.8C2.8,12.3,3.2,11.9,3.7,11.9L3.7,11.9z"/>
</svg>
