<svg xmlns="http://www.w3.org/2000/svg"	 viewBox="0 0 20 27.7" fill="#fff">
	<path d="M19.9,22.6l-4.6-12.2c0-0.1,0-0.1-0.1-0.1h0V7.9l0,0c0-0.1,0-0.2-0.1-0.3V7.4l-4.4-7C10.4,0,9.8-0.1,9.4,0.2
		C9.2,0.2,9.1,0.3,9.1,0.4L4.8,7.3v0.2c0,0.1-0.1,0.2-0.1,0.3l0,0v2.7L0.1,22.6c-0.1,0.3-0.1,0.6,0.1,0.9C0.3,23.8,0.6,24,1,23.9h5.7
		v2.8c0,0.5,0.4,1,0.9,1c0,0,0.1,0,0.1,0h4.6c0.5,0,1-0.4,1-0.9c0,0,0-0.1,0-0.1v-2.8H19c0.3,0,0.6-0.2,0.8-0.4
		C20,23.3,20.1,23,19.9,22.6z M10,2.8l2.5,4H7.4L10,2.8z M4.6,16.1V22H2.4L4.6,16.1z M6.5,10.7V8.9h6.7V22H6.5L6.5,10.7z M11.3,25.7
		H8.7v-1.8h2.6L11.3,25.7L11.3,25.7z M15.3,21.9V16l2.3,5.9L15.3,21.9z"/>
</svg>
