<svg xmlns="http://www.w3.org/2000/svg" viewBox="0 0 1920.19 615.08"><title>Asset 4</title><path d="M1920.19,615V394.07L1728.52,202.4a67.08,67.08,0,0,0-94.87,0l-84.13,84.13a61.48,61.48,0,0,1-83.71,3L1148,14.61a59.34,59.34,0,0,0-79.1,1L819.64,244.19a46.64,46.64,0,0,1-65.52-2.43l-115-122.44a59.33,59.33,0,0,0-88.91,2.74L386.25,320.8a51.92,51.92,0,0,1-76.76,3.68l-125-125a67.07,67.07,0,0,0-94.86,0L0,289.17V615H1920.19Z" fill="#370051"/><path d="M1920.19,500.08v-54h-28.07a6,6,0,0,1-4.24-1.76l-15-15a6,6,0,0,0-8.49,0l-5.51,5.52a6,6,0,0,1-10.25-4.24V321.08a6,6,0,0,0-6-6h-72a6,6,0,0,0-6,6v96a6,6,0,0,1-6,6l-12,0a6,6,0,0,1-6-6V363.09a6,6,0,0,0-6-6h-135a6,6,0,0,1-6-6v-77a6,6,0,0,0-6-6h-47a6,6,0,0,0-6,6v104a6,6,0,0,1-6,6H1452v-12a6,6,0,0,0-6-6h-36.51a6,6,0,0,1-4.25-1.76l-15-15a6,6,0,0,0-8.48,0l-5.52,5.52A6,6,0,0,1,1366,350.6V311.08a6,6,0,0,0-6-6h-72a6,6,0,0,0-6,6v32a6,6,0,0,1-6,6h-18a6,6,0,0,1-6-6h0a6,6,0,0,0-6-6H1117a6,6,0,0,1-6-6v-57a6,6,0,0,0-6-6h-47a6,6,0,0,0-6,6v104a6,6,0,0,1-6,6H810a6,6,0,0,1-6-6v-46a6,6,0,0,0-6-6H776a6,6,0,0,0-6,6v56a6,6,0,0,1-6,6h-6a6,6,0,0,1-6-6v-11a6,6,0,0,0-6-6H704a6,6,0,0,0-6,6v26a6,6,0,0,1-6,6H634a6,6,0,0,1-6-6v-86a6,6,0,0,0-6-6H558a6,6,0,0,0-6,6v108a6,6,0,0,1-6,6H502a6,6,0,0,1-6-6V390.31a6,6,0,0,0-6-6H429.49a6,6,0,0,0-6,6l-.12,55.78H390.12a6,6,0,0,1-4.24-1.76l-15-15a6,6,0,0,0-8.49,0l-5.51,5.52a6,6,0,0,1-10.25-4.24V321.08a6,6,0,0,0-6-6h-72a6,6,0,0,0-6,6v96a6,6,0,0,1-6,6l-12,0a6,6,0,0,1-6-6V363.09a6,6,0,0,0-6-6h-135a6,6,0,0,1-6-6v-77a6,6,0,0,0-6-6h-47a6,6,0,0,0-6,6v104a6,6,0,0,1-6,6H0v231H426.26a6.35,6.35,0,0,0,1.38-.16,6.19,6.19,0,0,0,1.37.16H1920.19l-.38-6v-109Z" fill="#2b0044"/></svg>