<svg xmlns="http://www.w3.org/2000/svg" xmlns:xlink="http://www.w3.org/1999/xlink" viewBox="0 0 72.62 321.97"><defs><linearGradient id="a" x1="74.74" y1="124.64" x2="74.74" y2="137.83" gradientTransform="translate(8.11 -3.42)" gradientUnits="userSpaceOnUse"><stop offset="0" stop-color="#220230"/><stop offset="0.82" stop-color="#220230" stop-opacity="0"/></linearGradient><linearGradient id="b" x1="74.74" y1="87.73" x2="74.74" y2="28.98" gradientTransform="translate(8.11 -3.42)" gradientUnits="userSpaceOnUse"><stop offset="0" stop-color="#8d34b7"/><stop offset="1" stop-color="#00b0f0"/></linearGradient><linearGradient id="c" x1="24.73" y1="71.7" x2="47.9" y2="71.7" gradientUnits="userSpaceOnUse"><stop offset="0" stop-color="#253842"/><stop offset="0.58" stop-color="#0e82ad" stop-opacity="0.38"/><stop offset="1" stop-color="#00b0f0" stop-opacity="0"/></linearGradient><linearGradient id="d" x1="84.32" y1="83.13" x2="101.65" y2="83.13" xlink:href="#c"/><linearGradient id="e" x1="10.02" y1="102.73" x2="70.75" y2="102.73" xlink:href="#c"/><linearGradient id="f" x1="74.74" y1="309.94" x2="74.74" y2="367.75" xlink:href="#a"/><linearGradient id="g" x1="74.74" y1="377.39" x2="74.74" y2="114.4" gradientTransform="translate(-38.42 -39.84)" xlink:href="#c"/><linearGradient id="h" x1="69.12" y1="313.55" x2="59" y2="313.55" gradientTransform="matrix(1, 0, 0, 1, 0, 0)" xlink:href="#a"/><linearGradient id="i" x1="-1008.84" y1="313.55" x2="-1018.95" y2="313.55" gradientTransform="matrix(-1, 0, 0, 1, -912.27, 0)" xlink:href="#a"/><linearGradient id="j" x1="37.09" y1="200.75" x2="46.31" y2="200.75" xlink:href="#c"/></defs><title>Rocket_after_effect</title><path d="M75.89,137.28h0a3.28,3.28,0,0,1,.12-.88l3-11.15h7.73l3,11.15a3.27,3.27,0,0,1,.11.88h0a3.41,3.41,0,0,1-3.41,3.42H79.31A3.42,3.42,0,0,1,75.89,137.28Z" transform="translate(-46.53 -36.42)" fill="#efed39"/><path d="M75.89,137.28h0a3.28,3.28,0,0,1,.12-.88l3-11.15h7.73l3,11.15a3.27,3.27,0,0,1,.11.88h0a3.41,3.41,0,0,1-3.41,3.42H79.31A3.42,3.42,0,0,1,75.89,137.28Z" transform="translate(-46.53 -36.42)" opacity="0.85" fill="url(#a)"/><polygon points="43.26 52.52 43.26 33.98 29.36 33.98 29.36 52.52 24.73 68.61 24.73 74.79 24.73 90.18 24.73 93.42 47.9 93.42 47.9 74.79 47.9 68.61 43.26 52.52" fill="#6decec"/><rect x="24.73" y="68.61" width="23.17" height="6.18" fill="#00b0f0"/><path d="M85.16,61.14V38.74a2.32,2.32,0,0,0-2.32-2.32h0a2.31,2.31,0,0,0-2.31,2.32v22.4l-4.64,9.27h13.9Z" transform="translate(-46.53 -36.42)" fill="url(#b)"/><circle cx="36.31" cy="42.94" r="3.46" fill="#fff"/><rect x="24.73" y="68.61" width="23.17" height="6.18" fill="url(#c)"/><path d="M94.43,111.21h0V105h0L89.79,88.94V70.4h0l-4.63-9.26V38.74a2.32,2.32,0,0,0-2.32-2.32h0v93.41H94.43Z" transform="translate(-46.53 -36.42)" opacity="0" fill="url(#d)"/><polygon points="55.62 112.04 17 112.04 24.72 93.42 47.9 93.42 55.62 112.04" fill="#00b0f0"/><polygon points="55.62 112.04 17 112.04 24.72 93.42 47.9 93.42 55.62 112.04" fill="url(#e)"/><path d="M64.32,349.3h0a9.36,9.36,0,0,1,.31-2.35l7.92-29.71H93.13L101.05,347a8.92,8.92,0,0,1,.31,2.35h0a9.09,9.09,0,0,1-9.1,9.09H73.42A9.1,9.1,0,0,1,64.32,349.3Z" transform="translate(-46.53 -36.42)" fill="#efed39"/><path d="M64.32,349.3h0a9.36,9.36,0,0,1,.31-2.35l7.92-29.71H93.13L101.05,347a8.92,8.92,0,0,1,.31,2.35h0a9.09,9.09,0,0,1-9.1,9.09H73.42A9.1,9.1,0,0,1,64.32,349.3Z" transform="translate(-46.53 -36.42)" opacity="0.5" fill="url(#f)"/><rect x="17" y="112.04" width="38.62" height="196.03" fill="#6decec"/><rect x="17" y="112.04" width="38.62" height="196.03" opacity="0.46" fill="url(#g)"/><path d="M52.71,341.4H50.77a4.23,4.23,0,0,1-4.24-4.23v-.76a4.28,4.28,0,0,1,.62-2.2l16.37-26.83v34Z" transform="translate(-46.53 -36.42)" fill="#eec61f"/><path d="M113,341.4h1.94a4.23,4.23,0,0,0,4.24-4.23v-.76a4.28,4.28,0,0,0-.62-2.2l-16.38-26.83v34Z" transform="translate(-46.53 -36.42)" fill="#eec61f"/><path d="M63.53,282.61v61.88H57a4.23,4.23,0,0,1-4.23-4.23h0a4.15,4.15,0,0,1,.07-.79Z" transform="translate(-46.53 -36.42)" fill="#efed39"/><path d="M81,301l-7.86,38a4.55,4.55,0,0,0,4.46,5.48H88.06A4.55,4.55,0,0,0,92.52,339l-7.86-38A1.84,1.84,0,0,0,81,301Z" transform="translate(-46.53 -36.42)" fill="#efed39"/><path d="M102.15,282.61v61.88h6.58a4.23,4.23,0,0,0,4.24-4.23h0a4.15,4.15,0,0,0-.08-.79Z" transform="translate(-46.53 -36.42)" fill="#efed39"/><path d="M63.53,282.61v61.88H57a4.23,4.23,0,0,1-4.23-4.23h0a4.15,4.15,0,0,1,.07-.79Z" transform="translate(-46.53 -36.42)" fill="url(#h)"/><path d="M102.15,282.61v61.88h6.58a4.23,4.23,0,0,0,4.24-4.23h0a4.15,4.15,0,0,0-.08-.79Z" transform="translate(-46.53 -36.42)" fill="url(#i)"/><polygon points="36.31 93.42 47.9 93.42 55.62 112.04 55.62 112.04 55.62 308.07 36.31 308.07 36.31 93.42" opacity="0" fill="url(#j)"/><path d="M82.47,266.53a9.52,9.52,0,0,0,5,2.12,9.51,9.51,0,0,0-5,2.11,7.4,7.4,0,0,0-2.15,5.91,8,8,0,1,0,0-16.05A7.38,7.38,0,0,0,82.47,266.53Z" transform="translate(-46.53 -36.42)" fill="#fff"/><ellipse cx="30.81" cy="231.93" rx="0.38" ry="0.9" fill="#fff"/><ellipse cx="31.41" cy="234.04" rx="0.38" ry="0.9" fill="#fff"/><ellipse cx="32.16" cy="236" rx="0.38" ry="0.9" fill="#fff"/><ellipse cx="31.71" cy="227.86" rx="0.38" ry="0.9" fill="#fff"/><ellipse cx="32.32" cy="229.97" rx="0.38" ry="0.9" fill="#fff"/><ellipse cx="33.07" cy="231.93" rx="0.38" ry="0.9" fill="#fff"/><path d="M78,246.17a.64.64,0,0,0,.19.72l4,3.43-4,3.25a.65.65,0,0,0,.41,1.15h9a.65.65,0,0,0,0-1.3H80.47l3.2-2.58a.64.64,0,0,0,.24-.5.66.66,0,0,0-.23-.5L80.4,247h7.25a.65.65,0,1,0,0-1.3h-9A.65.65,0,0,0,78,246.17Z" transform="translate(-46.53 -36.42)" fill="#fff"/><path d="M78,240.34a.65.65,0,0,0,.65.65h9a.65.65,0,0,0,0-1.3h-9A.65.65,0,0,0,78,240.34Z" transform="translate(-46.53 -36.42)" fill="#fff"/><path d="M77.77,215v7a.66.66,0,0,0,1.31,0v-2.84h8.57a.65.65,0,0,0,0-1.3H79.08V215a.66.66,0,0,0-1.31,0Z" transform="translate(-46.53 -36.42)" fill="#fff"/><path d="M78,196.8a.65.65,0,0,0,.65.65h9a.65.65,0,0,0,0-1.3h-9A.65.65,0,0,0,78,196.8Z" transform="translate(-46.53 -36.42)" fill="#fff"/><path d="M87,171.89v4.43H83.67v-4.17a.65.65,0,1,0-1.3,0v4.17H79.28v-4.23a.65.65,0,1,0-1.3,0V177a.65.65,0,0,0,.65.65h9a.65.65,0,0,0,.65-.65v-5.08a.65.65,0,0,0-1.3,0Z" transform="translate(-46.53 -36.42)" fill="#fff"/><path d="M78,227.41a.65.65,0,0,0,.65.65h7.08l-7.47,5.62a.64.64,0,0,0-.23.72.65.65,0,0,0,.62.45h9a.65.65,0,1,0,0-1.3H80.57L88,227.93a.65.65,0,0,0,.26-.52.76.76,0,0,0,0-.21.66.66,0,0,0-.62-.44h-9A.65.65,0,0,0,78,227.41Z" transform="translate(-46.53 -36.42)" fill="#fff"/><path d="M77.83,207.21v2.43a.67.67,0,0,0,.18.47.68.68,0,0,0,.47.19h9.18a.65.65,0,0,0,.65-.65v-2.41a5.24,5.24,0,0,0-10.47,0Zm9.17,0V209H79.12v-1.78a3.94,3.94,0,0,1,7.87,0Z" transform="translate(-46.53 -36.42)" fill="#fff"/><path d="M80.27,183.45a.66.66,0,0,0,0-.92.64.64,0,0,0-.92,0,5.24,5.24,0,1,0,7.42,0,.65.65,0,0,0-.92.92,3.94,3.94,0,1,1-5.58,0Z" transform="translate(-46.53 -36.42)" fill="#fff"/></svg>