<svg xmlns="http://www.w3.org/2000/svg" xmlns:xlink="http://www.w3.org/1999/xlink" viewBox="0 0 44.71 104.28"><defs><linearGradient id="a" x1="74.74" y1="124.64" x2="74.74" y2="137.83" gradientTransform="translate(8.11 -3.42)" gradientUnits="userSpaceOnUse"><stop offset="0" stop-color="#220230"/><stop offset="0.82" stop-color="#220230" stop-opacity="0"/></linearGradient><linearGradient id="b" x1="74.74" y1="87.73" x2="74.74" y2="28.98" gradientTransform="translate(8.11 -3.42)" gradientUnits="userSpaceOnUse"><stop offset="0" stop-color="#8d34b7"/><stop offset="1" stop-color="#00b0f0"/></linearGradient><linearGradient id="c" x1="10.77" y1="71.7" x2="33.94" y2="71.7" gradientUnits="userSpaceOnUse"><stop offset="0" stop-color="#253842"/><stop offset="0.58" stop-color="#0e82ad" stop-opacity="0.38"/><stop offset="1" stop-color="#00b0f0" stop-opacity="0"/></linearGradient><linearGradient id="d" x1="84.32" y1="83.13" x2="101.65" y2="83.13" xlink:href="#c"/><linearGradient id="e" x1="-2234.13" y1="117.43" x2="-2244.2" y2="117.43" gradientTransform="matrix(-1, 0, 0, 1, -2145.27, 0)" xlink:href="#a"/><linearGradient id="f" x1="-1935.26" y1="117.43" x2="-1945.34" y2="117.43" gradientTransform="translate(2012.08)" xlink:href="#a"/></defs><title>rocket-mini</title><path d="M75.89,137.28h0a3.28,3.28,0,0,1,.12-.88l3-11.15h7.73l3,11.15a3.27,3.27,0,0,1,.11.88h0a3.41,3.41,0,0,1-3.41,3.42H79.31A3.42,3.42,0,0,1,75.89,137.28Z" transform="translate(-60.49 -36.42)" fill="#efed39"/><path d="M75.89,137.28h0a3.28,3.28,0,0,1,.12-.88l3-11.15h7.73l3,11.15a3.27,3.27,0,0,1,.11.88h0a3.41,3.41,0,0,1-3.41,3.42H79.31A3.42,3.42,0,0,1,75.89,137.28Z" transform="translate(-60.49 -36.42)" opacity="0.85" fill="url(#a)"/><polygon points="29.31 52.52 29.31 33.98 15.4 33.98 15.4 52.52 10.77 68.61 10.77 74.79 10.77 90.18 10.77 93.42 33.94 93.42 33.94 74.79 33.94 68.61 29.31 52.52" fill="#6decec"/><rect x="10.77" y="68.61" width="23.17" height="6.18" fill="#00b0f0"/><path d="M85.16,61.14V38.74a2.32,2.32,0,0,0-2.32-2.32h0a2.31,2.31,0,0,0-2.31,2.32v22.4l-4.64,9.27h13.9Z" transform="translate(-60.49 -36.42)" fill="url(#b)"/><circle cx="22.35" cy="42.94" r="3.46" fill="#fff"/><rect x="10.77" y="68.61" width="23.17" height="6.18" fill="url(#c)"/><path d="M94.43,111.21h0V105h0L89.79,88.94V70.4h0l-4.63-9.26V38.74a2.32,2.32,0,0,0-2.32-2.32h0v93.41H94.43Z" transform="translate(-60.49 -36.42)" opacity="0" fill="url(#d)"/><path d="M94.43,105v24.81h5.76a5,5,0,0,0,4.41-7.37Z" transform="translate(-60.49 -36.42)" fill="#efed39"/><path d="M94.43,105v24.81h5.76a5,5,0,0,0,4.41-7.37Z" transform="translate(-60.49 -36.42)" fill="url(#e)"/><path d="M71.26,105v24.81H65.49a5,5,0,0,1-4.4-7.37Z" transform="translate(-60.49 -36.42)" fill="#efed39"/><path d="M71.26,105v24.81H65.49a5,5,0,0,1-4.4-7.37Z" transform="translate(-60.49 -36.42)" fill="url(#f)"/></svg>