<svg xmlns="http://www.w3.org/2000/svg" xmlns:xlink="http://www.w3.org/1999/xlink" viewBox="0 0 927.86 402.37"><defs><linearGradient id="a" x1="15.51" y1="283.9" x2="70.51" y2="283.9" gradientTransform="translate(-0.05 0.09)" gradientUnits="userSpaceOnUse"><stop offset="0" stop-color="#ff7bac"/><stop offset="0.22" stop-color="#ff7bac" stop-opacity="0.76"/><stop offset="0.6" stop-color="#ff7bac" stop-opacity="0.36"/><stop offset="0.87" stop-color="#ff7bac" stop-opacity="0.1"/><stop offset="1" stop-color="#ff7bac" stop-opacity="0"/></linearGradient><linearGradient id="b" x1="15.51" y1="311.4" x2="70.51" y2="311.4" gradientTransform="translate(0.01 0.09)" xlink:href="#a"/><linearGradient id="c" x1="96.15" y1="283.9" x2="133.51" y2="283.9" gradientTransform="translate(-0.05 -0.08)" xlink:href="#a"/><linearGradient id="d" x1="96.15" y1="311.4" x2="133.51" y2="311.4" gradientTransform="translate(0.01 -0.08)" xlink:href="#a"/><linearGradient id="e" x1="15.51" y1="337.07" x2="70.51" y2="337.07" gradientTransform="translate(0.07 0.09)" xlink:href="#a"/><linearGradient id="f" x1="15.51" y1="364.57" x2="70.51" y2="364.57" gradientTransform="translate(0.14 0.09)" xlink:href="#a"/><linearGradient id="g" x1="96.15" y1="337.07" x2="133.51" y2="337.07" gradientTransform="translate(0.07 -0.08)" xlink:href="#a"/><linearGradient id="h" x1="96.15" y1="364.57" x2="133.51" y2="364.57" gradientTransform="translate(0.14 -0.08)" xlink:href="#a"/><linearGradient id="i" x1="545.68" y1="175" x2="591.68" y2="175" gradientUnits="userSpaceOnUse"><stop offset="0" stop-color="#220230"/><stop offset="0.82" stop-color="#220230" stop-opacity="0"/></linearGradient><linearGradient id="j" x1="454.89" y1="192.36" x2="587.42" y2="192.36" gradientTransform="matrix(1, 0, 0, 1, 0, 0)" xlink:href="#a"/><linearGradient id="k" x1="574.03" y1="10.31" x2="574.03" y2="44.9" xlink:href="#i"/><linearGradient id="l" x1="732.66" y1="313" x2="857.66" y2="313" gradientTransform="matrix(1, 0, 0, 1, 0, 0)" xlink:href="#a"/><linearGradient id="m" x1="732.66" y1="340.5" x2="857.66" y2="340.5" gradientTransform="matrix(1, 0, 0, 1, 0, 0)" xlink:href="#a"/><linearGradient id="n" x1="732.66" y1="368" x2="857.66" y2="368" gradientTransform="matrix(1, 0, 0, 1, 0, 0)" xlink:href="#a"/><linearGradient id="o" x1="883.31" y1="313" x2="920.66" y2="313" gradientTransform="matrix(1, 0, 0, 1, 0, 0)" xlink:href="#a"/><linearGradient id="p" x1="883.31" y1="340.5" x2="920.66" y2="340.5" gradientTransform="matrix(1, 0, 0, 1, 0, 0)" xlink:href="#a"/><linearGradient id="q" x1="883.31" y1="368" x2="920.66" y2="368" gradientTransform="matrix(1, 0, 0, 1, 0, 0)" xlink:href="#a"/><linearGradient id="r" x1="811.79" y1="236.1" x2="811.79" y2="274.9" xlink:href="#i"/></defs><title>Asset 1</title><path d="M31.39,211.34H135.7a5,5,0,0,1,5,5V402.23a0,0,0,0,1,0,0H31.39a0,0,0,0,1,0,0V211.34a0,0,0,0,1,0,0Z" transform="translate(-0.71 0.2) rotate(-0.13)" fill="#220230"/><path d="M5.21,211.44H86.78a0,0,0,0,1,0,0V402.27a0,0,0,0,1,0,0H.21a0,0,0,0,1,0,0V216.44a5,5,0,0,1,5-5Z" transform="translate(-0.71 0.1) rotate(-0.13)" fill="#6a2493"/><rect x="15.46" y="276.99" width="55" height="14" transform="translate(-0.66 0.1) rotate(-0.13)" fill="url(#a)"/><rect x="15.52" y="304.49" width="55" height="14" transform="translate(-0.73 0.1) rotate(-0.13)" fill="url(#b)"/><rect x="96.1" y="276.82" width="37.35" height="14" transform="matrix(1, 0, 0, 1, -0.66, 0.27)" fill="url(#c)"/><rect x="96.16" y="304.32" width="37.35" height="14" transform="matrix(1, 0, 0, 1, -0.72, 0.27)" fill="url(#d)"/><rect x="15.58" y="330.16" width="55" height="14" transform="translate(-0.79 0.1) rotate(-0.13)" fill="url(#e)"/><rect x="15.64" y="357.66" width="55" height="14" transform="translate(-0.85 0.1) rotate(-0.13)" fill="url(#f)"/><rect x="96.22" y="329.99" width="37.35" height="14" transform="matrix(1, 0, 0, 1, -0.78, 0.27)" fill="url(#g)"/><rect x="96.29" y="357.49" width="37.35" height="14" transform="matrix(1, 0, 0, 1, -0.85, 0.27)" fill="url(#h)"/><rect x="545.68" y="53" width="46" height="244" fill="url(#i)"/><path d="M748.56,282.78h174.3a5,5,0,0,1,5,5V402.23a0,0,0,0,1,0,0H748.56a0,0,0,0,1,0,0V282.78A0,0,0,0,1,748.56,282.78Z" fill="#220230"/><path d="M722.38,282.78H873.94a0,0,0,0,1,0,0V402.23a0,0,0,0,1,0,0H717.38a0,0,0,0,1,0,0V287.78A5,5,0,0,1,722.38,282.78Z" fill="#6a2493"/><rect x="795.66" y="245.35" width="32.26" height="45.63" fill="#6a2493"/><rect x="168.74" y="339.46" width="508.31" height="62.75" fill="#220230"/><path d="M615.78,292.68l34.15,36.18h-23l-32.52-37.63L593.68,45l17.38,6a5,5,0,0,1,3.36,4.72V289.24A5,5,0,0,0,615.78,292.68Z" fill="#220230"/><path d="M637.51,331l-37.23-39a5,5,0,0,1-1.39-3.46V194.26h0v-96h0v-48a5,5,0,0,0-5-5h-48a5,5,0,0,0-5,5h0v96h0V286.41a5,5,0,0,1-1.29,3.35L502.31,331a5.23,5.23,0,0,0-1.33,4.47,5,5,0,0,0,4.91,4H633.7a5.17,5.17,0,0,0,4.24-2.07A5,5,0,0,0,637.51,331Zm-50.34-52.74-28-29.32a1,1,0,0,1,.72-1.69h28a1,1,0,0,1,1,1v29.31A1,1,0,0,1,587.17,278.27Zm-34.55-21.72,25.79,27a1,1,0,0,1-.72,1.69h-25.8a1,1,0,0,1-1-1v-27A1,1,0,0,1,552.62,256.55Zm7-21L587.19,208a1,1,0,0,1,1.7.71v27.51a1,1,0,0,1-1,1H560.38A1,1,0,0,1,559.67,235.55Zm27.52-55.07L559.67,153a1,1,0,0,1,.71-1.71h27.51a1,1,0,0,1,1,1v27.52A1,1,0,0,1,587.19,180.48Zm-27.52-40.93L587.19,112a1,1,0,0,1,1.7.71v27.51a1,1,0,0,1-1,1H560.38A1,1,0,0,1,559.67,139.55Zm27.52-55.07L559.67,57a1,1,0,0,1,.71-1.71h27.51a1,1,0,0,1,1,1V83.78A1,1,0,0,1,587.19,84.48ZM552.6,64l27.51,27.51a1,1,0,0,1-.7,1.71H551.89a1,1,0,0,1-1-1V64.75A1,1,0,0,1,552.6,64ZM580.11,105,552.6,132.48a1,1,0,0,1-1.71-.7V104.26a1,1,0,0,1,1-1h27.52A1,1,0,0,1,580.11,105ZM552.6,160l27.51,27.51a1,1,0,0,1-.7,1.71H551.89a1,1,0,0,1-1-1V160.75A1,1,0,0,1,552.6,160ZM580.11,201,552.6,228.48a1,1,0,0,1-1.71-.7V200.26a1,1,0,0,1,1-1h27.52A1,1,0,0,1,580.11,201Zm42.1,128.49H517.16" fill="#6a2493"/><path d="M569,45.26V17.77a5,5,0,1,1,10,0V45.26Z" fill="#f0424a"/><path d="M637.51,331l-37.23-39a5,5,0,0,1-1.39-3.46V194.26h0v-96h0v-48a5,5,0,0,0-5-5h-48a5,5,0,0,0-5,5h0v96h0V286.41a5,5,0,0,1-1.29,3.35L502.31,331a5.23,5.23,0,0,0-1.33,4.47,5,5,0,0,0,4.91,4H633.7a5.17,5.17,0,0,0,4.24-2.07A5,5,0,0,0,637.51,331Zm-50.34-52.74-28-29.32a1,1,0,0,1,.72-1.69h28a1,1,0,0,1,1,1v29.31A1,1,0,0,1,587.17,278.27Zm-34.55-21.72,25.79,27a1,1,0,0,1-.72,1.69h-25.8a1,1,0,0,1-1-1v-27A1,1,0,0,1,552.62,256.55Zm7-21L587.19,208a1,1,0,0,1,1.7.71v27.51a1,1,0,0,1-1,1H560.38A1,1,0,0,1,559.67,235.55Zm27.52-55.07L559.67,153a1,1,0,0,1,.71-1.71h27.51a1,1,0,0,1,1,1v27.52A1,1,0,0,1,587.19,180.48Zm-27.52-40.93L587.19,112a1,1,0,0,1,1.7.71v27.51a1,1,0,0,1-1,1H560.38A1,1,0,0,1,559.67,139.55Zm27.52-55.07L559.67,57a1,1,0,0,1,.71-1.71h27.51a1,1,0,0,1,1,1V83.78A1,1,0,0,1,587.19,84.48ZM552.6,64l27.51,27.51a1,1,0,0,1-.7,1.71H551.89a1,1,0,0,1-1-1V64.75A1,1,0,0,1,552.6,64ZM580.11,105,552.6,132.48a1,1,0,0,1-1.71-.7V104.26a1,1,0,0,1,1-1h27.52A1,1,0,0,1,580.11,105ZM552.6,160l27.51,27.51a1,1,0,0,1-.7,1.71H551.89a1,1,0,0,1-1-1V160.75A1,1,0,0,1,552.6,160ZM580.11,201,552.6,228.48a1,1,0,0,1-1.71-.7V200.26a1,1,0,0,1,1-1h27.52A1,1,0,0,1,580.11,201Z" fill="url(#j)"/><polygon points="456.74 324.26 168.74 324.26 168.74 334.46 168.68 334.46 168.68 402.21 184.14 402.21 184.14 342.21 214.1 342.21 214.1 402.21 229.56 402.21 229.56 342.21 259.52 342.21 259.52 402.21 274.98 402.21 274.98 342.21 304.95 342.21 304.95 402.21 320.41 402.21 320.41 342.21 350.37 342.21 350.37 402.21 365.83 402.21 365.83 342.21 395.8 342.21 395.8 402.21 411.25 402.21 411.25 342.21 441.22 342.21 441.22 402.21 456.68 402.21 456.68 342.21 456.74 342.21 456.74 324.26" fill="#6a2493"/><polygon points="683.98 324.26 395.98 324.26 395.98 334.46 395.92 334.46 395.92 402.21 411.38 402.21 411.38 342.21 441.34 342.21 441.34 402.21 456.8 402.21 456.8 342.21 486.77 342.21 486.77 402.21 502.23 402.21 502.23 342.21 532.19 342.21 532.19 402.21 547.65 402.21 547.65 342.21 577.61 342.21 577.61 402.21 593.07 402.21 593.07 342.21 623.04 342.21 623.04 402.21 638.5 402.21 638.5 342.21 668.46 342.21 668.46 402.21 683.92 402.21 683.92 342.21 683.98 342.21 683.98 324.26" fill="#6a2493"/><path d="M569,41.26V17.77a5,5,0,1,1,10,0V41.26Z" fill="url(#k)"/><circle cx="573.68" cy="13" r="13" fill="#f0424a"/><path d="M49.57,242.49c-3.46,3.46-5.48,10-6.08,14.47-.59-4.5-2.61-11-6.07-14.47a21.38,21.38,0,0,0-17-6.19,21.38,21.38,0,0,0,23.06,23.19A21.38,21.38,0,0,0,66.56,236.3,21.38,21.38,0,0,0,49.57,242.49Z" fill="#b554e2"/><ellipse cx="44.36" cy="227.75" rx="2.6" ry="1.08" fill="#b554e2"/><ellipse cx="38.29" cy="229.48" rx="2.6" ry="1.08" fill="#b554e2"/><ellipse cx="32.66" cy="231.65" rx="2.6" ry="1.08" fill="#b554e2"/><ellipse cx="56.05" cy="230.35" rx="2.6" ry="1.08" fill="#b554e2"/><ellipse cx="49.99" cy="232.08" rx="2.6" ry="1.08" fill="#b554e2"/><ellipse cx="44.36" cy="234.25" rx="2.6" ry="1.08" fill="#b554e2"/><rect x="732.66" y="306" width="125" height="14" fill="url(#l)"/><rect x="732.66" y="333.5" width="125" height="14" fill="url(#m)"/><rect x="732.66" y="361" width="125" height="14" fill="url(#n)"/><rect x="883.31" y="306" width="37.35" height="14" fill="url(#o)"/><rect x="883.31" y="333.5" width="37.35" height="14" fill="url(#p)"/><rect x="883.31" y="361" width="37.35" height="14" fill="url(#q)"/><rect x="795.66" y="245.35" width="32.26" height="60.63" fill="url(#r)"/></svg>